G04 #@! TF.GenerationSoftware,KiCad,Pcbnew,9.0.4-9.0.4-0~ubuntu24.04.1*
G04 #@! TF.CreationDate,2025-10-12T17:09:38+01:00*
G04 #@! TF.ProjectId,SMDButtonAdapter,534d4442-7574-4746-9f6e-416461707465,rev?*
G04 #@! TF.SameCoordinates,Original*
G04 #@! TF.FileFunction,Copper,L1,Top*
G04 #@! TF.FilePolarity,Positive*
%FSLAX46Y46*%
G04 Gerber Fmt 4.6, Leading zero omitted, Abs format (unit mm)*
G04 Created by KiCad (PCBNEW 9.0.4-9.0.4-0~ubuntu24.04.1) date 2025-10-12 17:09:38*
%MOMM*%
%LPD*%
G01*
G04 APERTURE LIST*
G04 Aperture macros list*
%AMRoundRect*
0 Rectangle with rounded corners*
0 $1 Rounding radius*
0 $2 $3 $4 $5 $6 $7 $8 $9 X,Y pos of 4 corners*
0 Add a 4 corners polygon primitive as box body*
4,1,4,$2,$3,$4,$5,$6,$7,$8,$9,$2,$3,0*
0 Add four circle primitives for the rounded corners*
1,1,$1+$1,$2,$3*
1,1,$1+$1,$4,$5*
1,1,$1+$1,$6,$7*
1,1,$1+$1,$8,$9*
0 Add four rect primitives between the rounded corners*
20,1,$1+$1,$2,$3,$4,$5,0*
20,1,$1+$1,$4,$5,$6,$7,0*
20,1,$1+$1,$6,$7,$8,$9,0*
20,1,$1+$1,$8,$9,$2,$3,0*%
G04 Aperture macros list end*
G04 #@! TA.AperFunction,SMDPad,CuDef*
%ADD10RoundRect,0.250000X0.625000X-0.312500X0.625000X0.312500X-0.625000X0.312500X-0.625000X-0.312500X0*%
G04 #@! TD*
G04 #@! TA.AperFunction,ComponentPad*
%ADD11C,3.000000*%
G04 #@! TD*
G04 #@! TA.AperFunction,SMDPad,CuDef*
%ADD12R,1.800000X1.100000*%
G04 #@! TD*
G04 #@! TA.AperFunction,Conductor*
%ADD13C,0.200000*%
G04 #@! TD*
G04 APERTURE END LIST*
D10*
X125500000Y-88950000D03*
X125500000Y-86025000D03*
X125500000Y-94425000D03*
X125500000Y-91500000D03*
X125500000Y-102500000D03*
X125500000Y-105425000D03*
X125500000Y-97000000D03*
X125500000Y-99925000D03*
X125500000Y-108000000D03*
X125500000Y-110925000D03*
D11*
X125500000Y-114000000D03*
X125500000Y-83000000D03*
D12*
X115900000Y-109650000D03*
X122100000Y-109650000D03*
X115900000Y-113350000D03*
X122100000Y-113350000D03*
X115857500Y-103150000D03*
X122057500Y-103150000D03*
X115857500Y-106850000D03*
X122057500Y-106850000D03*
X115857500Y-96870000D03*
X122057500Y-96870000D03*
X115857500Y-100570000D03*
X122057500Y-100570000D03*
X115857500Y-90650000D03*
X122057500Y-90650000D03*
X115857500Y-94350000D03*
X122057500Y-94350000D03*
X115857500Y-84150000D03*
X122057500Y-84150000D03*
X115857500Y-87850000D03*
X122057500Y-87850000D03*
D13*
X115900000Y-113350000D02*
X114800000Y-113350000D01*
X114800000Y-113350000D02*
X114699000Y-113249000D01*
X114699000Y-113249000D02*
X114699000Y-108008500D01*
X114699000Y-108008500D02*
X115857500Y-106850000D01*
X125500000Y-114000000D02*
X124500000Y-115000000D01*
X124500000Y-115000000D02*
X117000000Y-115000000D01*
X117000000Y-115000000D02*
X117000000Y-114450000D01*
X117000000Y-114450000D02*
X115900000Y-113350000D01*
X115900000Y-113350000D02*
X115400000Y-113350000D01*
X122600000Y-109150000D02*
X122100000Y-109650000D01*
X115400000Y-113350000D02*
X115364664Y-113385336D01*
X115857500Y-113392500D02*
X115900000Y-113350000D01*
X123277500Y-109150000D02*
X122600000Y-109150000D01*
X124427500Y-108000000D02*
X123277500Y-109150000D01*
X125500000Y-108000000D02*
X124427500Y-108000000D01*
X115857500Y-106850000D02*
X115387500Y-107320000D01*
X123177500Y-102500000D02*
X122527500Y-103150000D01*
X115364664Y-107320000D02*
X114656500Y-106611836D01*
X122527500Y-103150000D02*
X122057500Y-103150000D01*
X125500000Y-102500000D02*
X123177500Y-102500000D01*
X114656500Y-106611836D02*
X114656500Y-101771000D01*
X115387500Y-107320000D02*
X115364664Y-107320000D01*
X114656500Y-101771000D02*
X115857500Y-100570000D01*
X115857500Y-107320000D02*
X115857500Y-106850000D01*
X115857500Y-94350000D02*
X115364664Y-94350000D01*
X115364664Y-94350000D02*
X114656500Y-93641836D01*
X114656500Y-93641836D02*
X114656500Y-88271000D01*
X125500000Y-91500000D02*
X124120000Y-90120000D01*
X115364664Y-100570000D02*
X114656500Y-99861836D01*
X122587500Y-90120000D02*
X122057500Y-90650000D01*
X124120000Y-90120000D02*
X122587500Y-90120000D01*
X114656500Y-95021000D02*
X115327500Y-94350000D01*
X115857500Y-100570000D02*
X115364664Y-100570000D01*
X114656500Y-99861836D02*
X114656500Y-95021000D01*
X115327500Y-94350000D02*
X115857500Y-94350000D01*
X122550336Y-83370000D02*
X122337500Y-83370000D01*
X123258500Y-84078164D02*
X122550336Y-83370000D01*
X125500000Y-88950000D02*
X123258500Y-86708500D01*
X122337500Y-83370000D02*
X122057500Y-83650000D01*
X123258500Y-86708500D02*
X123258500Y-84078164D01*
X122057500Y-83650000D02*
X122057500Y-84150000D01*
X115077500Y-87850000D02*
X115857500Y-87850000D01*
X114656500Y-88271000D02*
X115077500Y-87850000D01*
X125500000Y-110925000D02*
X126676000Y-109749000D01*
X126676000Y-109749000D02*
X126676000Y-104249000D01*
X125500000Y-105425000D02*
X126676000Y-104249000D01*
X126676000Y-104249000D02*
X126676000Y-98749000D01*
X125500000Y-99925000D02*
X126676000Y-98749000D01*
X126676000Y-98749000D02*
X126676000Y-93249000D01*
X125500000Y-97000000D02*
X122187500Y-97000000D01*
X122187500Y-97000000D02*
X122057500Y-96870000D01*
X125500000Y-94425000D02*
X126676000Y-93249000D01*
X126676000Y-93249000D02*
X126676000Y-87201000D01*
X126676000Y-87201000D02*
X125500000Y-86025000D01*
X125500000Y-83000000D02*
X125500000Y-86025000D01*
M02*
