G04 #@! TF.GenerationSoftware,KiCad,Pcbnew,9.0.4-9.0.4-0~ubuntu24.04.1*
G04 #@! TF.CreationDate,2025-10-12T17:09:39+01:00*
G04 #@! TF.ProjectId,SMDButtonAdapter,534d4442-7574-4746-9f6e-416461707465,rev?*
G04 #@! TF.SameCoordinates,Original*
G04 #@! TF.FileFunction,Legend,Top*
G04 #@! TF.FilePolarity,Positive*
%FSLAX46Y46*%
G04 Gerber Fmt 4.6, Leading zero omitted, Abs format (unit mm)*
G04 Created by KiCad (PCBNEW 9.0.4-9.0.4-0~ubuntu24.04.1) date 2025-10-12 17:09:39*
%MOMM*%
%LPD*%
G01*
G04 APERTURE LIST*
G04 Aperture macros list*
%AMRoundRect*
0 Rectangle with rounded corners*
0 $1 Rounding radius*
0 $2 $3 $4 $5 $6 $7 $8 $9 X,Y pos of 4 corners*
0 Add a 4 corners polygon primitive as box body*
4,1,4,$2,$3,$4,$5,$6,$7,$8,$9,$2,$3,0*
0 Add four circle primitives for the rounded corners*
1,1,$1+$1,$2,$3*
1,1,$1+$1,$4,$5*
1,1,$1+$1,$6,$7*
1,1,$1+$1,$8,$9*
0 Add four rect primitives between the rounded corners*
20,1,$1+$1,$2,$3,$4,$5,0*
20,1,$1+$1,$4,$5,$6,$7,0*
20,1,$1+$1,$6,$7,$8,$9,0*
20,1,$1+$1,$8,$9,$2,$3,0*%
G04 Aperture macros list end*
%ADD10C,0.150000*%
%ADD11C,0.120000*%
%ADD12RoundRect,0.250000X0.625000X-0.312500X0.625000X0.312500X-0.625000X0.312500X-0.625000X-0.312500X0*%
%ADD13C,3.000000*%
%ADD14R,1.800000X1.100000*%
G04 APERTURE END LIST*
D10*
X123954819Y-92666666D02*
X123478628Y-92999999D01*
X123954819Y-93238094D02*
X122954819Y-93238094D01*
X122954819Y-93238094D02*
X122954819Y-92857142D01*
X122954819Y-92857142D02*
X123002438Y-92761904D01*
X123002438Y-92761904D02*
X123050057Y-92714285D01*
X123050057Y-92714285D02*
X123145295Y-92666666D01*
X123145295Y-92666666D02*
X123288152Y-92666666D01*
X123288152Y-92666666D02*
X123383390Y-92714285D01*
X123383390Y-92714285D02*
X123431009Y-92761904D01*
X123431009Y-92761904D02*
X123478628Y-92857142D01*
X123478628Y-92857142D02*
X123478628Y-93238094D01*
X123050057Y-92285713D02*
X123002438Y-92238094D01*
X123002438Y-92238094D02*
X122954819Y-92142856D01*
X122954819Y-92142856D02*
X122954819Y-91904761D01*
X122954819Y-91904761D02*
X123002438Y-91809523D01*
X123002438Y-91809523D02*
X123050057Y-91761904D01*
X123050057Y-91761904D02*
X123145295Y-91714285D01*
X123145295Y-91714285D02*
X123240533Y-91714285D01*
X123240533Y-91714285D02*
X123383390Y-91761904D01*
X123383390Y-91761904D02*
X123954819Y-92333332D01*
X123954819Y-92333332D02*
X123954819Y-91714285D01*
X124124819Y-98666666D02*
X123648628Y-98999999D01*
X124124819Y-99238094D02*
X123124819Y-99238094D01*
X123124819Y-99238094D02*
X123124819Y-98857142D01*
X123124819Y-98857142D02*
X123172438Y-98761904D01*
X123172438Y-98761904D02*
X123220057Y-98714285D01*
X123220057Y-98714285D02*
X123315295Y-98666666D01*
X123315295Y-98666666D02*
X123458152Y-98666666D01*
X123458152Y-98666666D02*
X123553390Y-98714285D01*
X123553390Y-98714285D02*
X123601009Y-98761904D01*
X123601009Y-98761904D02*
X123648628Y-98857142D01*
X123648628Y-98857142D02*
X123648628Y-99238094D01*
X123124819Y-98333332D02*
X123124819Y-97714285D01*
X123124819Y-97714285D02*
X123505771Y-98047618D01*
X123505771Y-98047618D02*
X123505771Y-97904761D01*
X123505771Y-97904761D02*
X123553390Y-97809523D01*
X123553390Y-97809523D02*
X123601009Y-97761904D01*
X123601009Y-97761904D02*
X123696247Y-97714285D01*
X123696247Y-97714285D02*
X123934342Y-97714285D01*
X123934342Y-97714285D02*
X124029580Y-97761904D01*
X124029580Y-97761904D02*
X124077200Y-97809523D01*
X124077200Y-97809523D02*
X124124819Y-97904761D01*
X124124819Y-97904761D02*
X124124819Y-98190475D01*
X124124819Y-98190475D02*
X124077200Y-98285713D01*
X124077200Y-98285713D02*
X124029580Y-98333332D01*
X124124819Y-104129166D02*
X123648628Y-104462499D01*
X124124819Y-104700594D02*
X123124819Y-104700594D01*
X123124819Y-104700594D02*
X123124819Y-104319642D01*
X123124819Y-104319642D02*
X123172438Y-104224404D01*
X123172438Y-104224404D02*
X123220057Y-104176785D01*
X123220057Y-104176785D02*
X123315295Y-104129166D01*
X123315295Y-104129166D02*
X123458152Y-104129166D01*
X123458152Y-104129166D02*
X123553390Y-104176785D01*
X123553390Y-104176785D02*
X123601009Y-104224404D01*
X123601009Y-104224404D02*
X123648628Y-104319642D01*
X123648628Y-104319642D02*
X123648628Y-104700594D01*
X123458152Y-103272023D02*
X124124819Y-103272023D01*
X123077200Y-103510118D02*
X123791485Y-103748213D01*
X123791485Y-103748213D02*
X123791485Y-103129166D01*
X124124819Y-87666666D02*
X123648628Y-87999999D01*
X124124819Y-88238094D02*
X123124819Y-88238094D01*
X123124819Y-88238094D02*
X123124819Y-87857142D01*
X123124819Y-87857142D02*
X123172438Y-87761904D01*
X123172438Y-87761904D02*
X123220057Y-87714285D01*
X123220057Y-87714285D02*
X123315295Y-87666666D01*
X123315295Y-87666666D02*
X123458152Y-87666666D01*
X123458152Y-87666666D02*
X123553390Y-87714285D01*
X123553390Y-87714285D02*
X123601009Y-87761904D01*
X123601009Y-87761904D02*
X123648628Y-87857142D01*
X123648628Y-87857142D02*
X123648628Y-88238094D01*
X124124819Y-86714285D02*
X124124819Y-87285713D01*
X124124819Y-86999999D02*
X123124819Y-86999999D01*
X123124819Y-86999999D02*
X123267676Y-87095237D01*
X123267676Y-87095237D02*
X123362914Y-87190475D01*
X123362914Y-87190475D02*
X123410533Y-87285713D01*
X124124819Y-109629166D02*
X123648628Y-109962499D01*
X124124819Y-110200594D02*
X123124819Y-110200594D01*
X123124819Y-110200594D02*
X123124819Y-109819642D01*
X123124819Y-109819642D02*
X123172438Y-109724404D01*
X123172438Y-109724404D02*
X123220057Y-109676785D01*
X123220057Y-109676785D02*
X123315295Y-109629166D01*
X123315295Y-109629166D02*
X123458152Y-109629166D01*
X123458152Y-109629166D02*
X123553390Y-109676785D01*
X123553390Y-109676785D02*
X123601009Y-109724404D01*
X123601009Y-109724404D02*
X123648628Y-109819642D01*
X123648628Y-109819642D02*
X123648628Y-110200594D01*
X123124819Y-108724404D02*
X123124819Y-109200594D01*
X123124819Y-109200594D02*
X123601009Y-109248213D01*
X123601009Y-109248213D02*
X123553390Y-109200594D01*
X123553390Y-109200594D02*
X123505771Y-109105356D01*
X123505771Y-109105356D02*
X123505771Y-108867261D01*
X123505771Y-108867261D02*
X123553390Y-108772023D01*
X123553390Y-108772023D02*
X123601009Y-108724404D01*
X123601009Y-108724404D02*
X123696247Y-108676785D01*
X123696247Y-108676785D02*
X123934342Y-108676785D01*
X123934342Y-108676785D02*
X124029580Y-108724404D01*
X124029580Y-108724404D02*
X124077200Y-108772023D01*
X124077200Y-108772023D02*
X124124819Y-108867261D01*
X124124819Y-108867261D02*
X124124819Y-109105356D01*
X124124819Y-109105356D02*
X124077200Y-109200594D01*
X124077200Y-109200594D02*
X124029580Y-109248213D01*
D11*
X124590000Y-88214564D02*
X124590000Y-86760436D01*
X126410000Y-88214564D02*
X126410000Y-86760436D01*
X124590000Y-93689564D02*
X124590000Y-92235436D01*
X126410000Y-93689564D02*
X126410000Y-92235436D01*
X126410000Y-104689564D02*
X126410000Y-103235436D01*
X124590000Y-104689564D02*
X124590000Y-103235436D01*
X126410000Y-99189564D02*
X126410000Y-97735436D01*
X124590000Y-99189564D02*
X124590000Y-97735436D01*
X126410000Y-110189564D02*
X126410000Y-108735436D01*
X124590000Y-110189564D02*
X124590000Y-108735436D01*
X127300694Y-114000000D02*
G75*
G02*
X123699306Y-114000000I-1800694J0D01*
G01*
X123699306Y-114000000D02*
G75*
G02*
X127300694Y-114000000I1800694J0D01*
G01*
X127300694Y-83000000D02*
G75*
G02*
X123699306Y-83000000I-1800694J0D01*
G01*
X123699306Y-83000000D02*
G75*
G02*
X127300694Y-83000000I1800694J0D01*
G01*
X116280000Y-112540000D02*
X116280000Y-110460000D01*
X117550000Y-108780000D02*
X117060000Y-109270000D01*
X117550000Y-108780000D02*
X120450000Y-108780000D01*
X117550000Y-114220000D02*
X117060000Y-113730000D01*
X117550000Y-114220000D02*
X120450000Y-114220000D01*
X120450000Y-108780000D02*
X120940000Y-109270000D01*
X120450000Y-114220000D02*
X120940000Y-113730000D01*
X121720000Y-112540000D02*
X121720000Y-110460000D01*
X116237500Y-106040000D02*
X116237500Y-103960000D01*
X117507500Y-102280000D02*
X117017500Y-102770000D01*
X117507500Y-102280000D02*
X120407500Y-102280000D01*
X117507500Y-107720000D02*
X117017500Y-107230000D01*
X117507500Y-107720000D02*
X120407500Y-107720000D01*
X120407500Y-102280000D02*
X120897500Y-102770000D01*
X120407500Y-107720000D02*
X120897500Y-107230000D01*
X121677500Y-106040000D02*
X121677500Y-103960000D01*
X116237500Y-99760000D02*
X116237500Y-97680000D01*
X117507500Y-96000000D02*
X117017500Y-96490000D01*
X117507500Y-96000000D02*
X120407500Y-96000000D01*
X117507500Y-101440000D02*
X117017500Y-100950000D01*
X117507500Y-101440000D02*
X120407500Y-101440000D01*
X120407500Y-96000000D02*
X120897500Y-96490000D01*
X120407500Y-101440000D02*
X120897500Y-100950000D01*
X121677500Y-99760000D02*
X121677500Y-97680000D01*
X116237500Y-93540000D02*
X116237500Y-91460000D01*
X117507500Y-89780000D02*
X117017500Y-90270000D01*
X117507500Y-89780000D02*
X120407500Y-89780000D01*
X117507500Y-95220000D02*
X117017500Y-94730000D01*
X117507500Y-95220000D02*
X120407500Y-95220000D01*
X120407500Y-89780000D02*
X120897500Y-90270000D01*
X120407500Y-95220000D02*
X120897500Y-94730000D01*
X121677500Y-93540000D02*
X121677500Y-91460000D01*
X116237500Y-87040000D02*
X116237500Y-84960000D01*
X117507500Y-83280000D02*
X117017500Y-83770000D01*
X117507500Y-83280000D02*
X120407500Y-83280000D01*
X117507500Y-88720000D02*
X117017500Y-88230000D01*
X117507500Y-88720000D02*
X120407500Y-88720000D01*
X120407500Y-83280000D02*
X120897500Y-83770000D01*
X120407500Y-88720000D02*
X120897500Y-88230000D01*
X121677500Y-87040000D02*
X121677500Y-84960000D01*
%LPC*%
D12*
X125500000Y-88950000D03*
X125500000Y-86025000D03*
X125500000Y-94425000D03*
X125500000Y-91500000D03*
X125500000Y-102500000D03*
X125500000Y-105425000D03*
X125500000Y-97000000D03*
X125500000Y-99925000D03*
X125500000Y-108000000D03*
X125500000Y-110925000D03*
D13*
X125500000Y-114000000D03*
X125500000Y-83000000D03*
D14*
X115900000Y-109650000D03*
X122100000Y-109650000D03*
X115900000Y-113350000D03*
X122100000Y-113350000D03*
X115857500Y-103150000D03*
X122057500Y-103150000D03*
X115857500Y-106850000D03*
X122057500Y-106850000D03*
X115857500Y-96870000D03*
X122057500Y-96870000D03*
X115857500Y-100570000D03*
X122057500Y-100570000D03*
X115857500Y-90650000D03*
X122057500Y-90650000D03*
X115857500Y-94350000D03*
X122057500Y-94350000D03*
X115857500Y-84150000D03*
X122057500Y-84150000D03*
X115857500Y-87850000D03*
X122057500Y-87850000D03*
%LPD*%
M02*
